<svg id="Layer_1" data-name="Layer 1" xmlns="http://www.w3.org/2000/svg" width="0.32in" height="0.32in" viewBox="0 0 23.1 23.1"><defs><style>.cls-1{fill:#fff;fill-rule:evenodd;}</style></defs><path class="cls-1" d="M11.55,0A11.55,11.55,0,1,0,23.1,11.55,11.55,11.55,0,0,0,11.55,0Zm2.82,8H13.23c-.46,0-.8.19-.82.76,0,.42,0,1.39,0,1.39h1.92c-.08.66-.17,1.3-.25,2H12.41V17h-2V12.06H8.73V10.12h1.66V10c0-.39,0-.78,0-1.17a4.65,4.65,0,0,1,.07-.75,2.13,2.13,0,0,1,.87-1.45,2.44,2.44,0,0,1,1.45-.45c.35,0,.69,0,1,0l.55,0Z"/></svg>