<svg id="Layer_1" data-name="Layer 1" xmlns="http://www.w3.org/2000/svg" width="0.32in" height="0.32in" viewBox="0 0 23.1 23.09"><defs><style>.cls-1{fill:#fff;}</style></defs><path class="cls-1" d="M9.38,7.23a4.84,4.84,0,0,0-2.51,3.12,15.1,15.1,0,0,0,4.37-.53A15.49,15.49,0,0,0,9.38,7.23Z"/><path class="cls-1" d="M12.23,9.48a6.16,6.16,0,0,0,2.38-1.67,4.84,4.84,0,0,0-3.06-1.09,4.66,4.66,0,0,0-1.13.13A16.56,16.56,0,0,1,11.93,9C12,9.12,12.13,9.3,12.23,9.48Z"/><path class="cls-1" d="M10.35,13.54a7.52,7.52,0,0,0-1.66,1.9,4.8,4.8,0,0,0,2.86.94,5,5,0,0,0,1.77-.33,15.66,15.66,0,0,0-.88-3.64A6.65,6.65,0,0,0,10.35,13.54Z"/><path class="cls-1" d="M12.06,11.46c-.11-.25-.21-.48-.33-.71a13.55,13.55,0,0,1-1.72.41,18.32,18.32,0,0,1-2.85.23H6.72v.17a4.78,4.78,0,0,0,1.2,3.18,8.4,8.4,0,0,1,1.78-2A7.49,7.49,0,0,1,12.06,11.46Z"/><path class="cls-1" d="M11.55,0A11.55,11.55,0,1,0,23.1,11.55,11.55,11.55,0,0,0,11.55,0Zm0,17.41a5.87,5.87,0,1,1,5.86-5.86A5.88,5.88,0,0,1,11.55,17.41Z"/><path class="cls-1" d="M12.71,10.39l.36.81a8.8,8.8,0,0,1,3.3.06,4.79,4.79,0,0,0-1-2.71A7,7,0,0,1,12.71,10.39Z"/><path class="cls-1" d="M13.46,12.17a18,18,0,0,1,.83,3.35,4.81,4.81,0,0,0,2-3.22A8,8,0,0,0,13.46,12.17Z"/></svg>