<svg id="Livello_1" data-name="Livello 1" xmlns="http://www.w3.org/2000/svg" width="189.52mm" height="44.62mm" viewBox="0 0 537.23 126.48"><path d="M122.46,126.18a37.71,37.71,0,0,1-6.36.2q-23.77-3.22-47.53-6.68Q46,116.43,23.52,113c-5.29-.83-10.54-2-15.76-3.15a11.26,11.26,0,0,1-6.67-3.88,4,4,0,0,1,.59-.39c23-9.25,46-18.53,69.58-26.27,3.54-1.16,7.2-1.93,10.82-2.87a3.44,3.44,0,0,1,3.56,1,68,68,0,0,1,4.84,5.48c8.64,11.48,17.19,23,25.79,34.53,2.06,2.75,4.22,5.43,6.33,8.15Z"/><path d="M.3,103.25c-.76-1.94,0-3.33,1.23-4.62C6,93.81,10.43,89,14.9,84.17Q53,43.19,91,2.23C92.15,1,93.3-.1,95.15,0c1,.06,1.49.25,1.26,1.45C94,14,91.78,26.47,89.23,38.93a129,129,0,0,1-6.4,21.71,17.12,17.12,0,0,1-7.14,8.67A160.53,160.53,0,0,1,55.42,79.47L2,102.56C1.51,102.79,1,103,.3,103.25Z"/><path d="M138,43.7a11.35,11.35,0,0,1,1.13-.11c4.13,0,8.25,0,12.38,0a1.79,1.79,0,0,1,1.35.83c3.67,10.67,7.38,21.33,10.84,32.06,1.45,4.5,2.35,9.17,3.51,13.76a3.61,3.61,0,0,0,.73,1.59c.58-2.47,1.18-5,1.74-7.43,2.67-11.83,7.18-23.09,10.92-34.59.58-1.77,1.17-3.54,1.83-5.28.15-.39.65-.93,1-.93,4.69-.06,9.38,0,14.18,0v59.6h-9.92V54.67c-.41,1.64-.89,3.43-1.31,5.23-2.56,11.08-6.84,21.6-10.4,32.35-1.1,3.31-2.3,6.59-3.39,9.91a1.41,1.41,0,0,1-1.64,1.14c-2.26-.06-4.51,0-6.76-.06a1.74,1.74,0,0,1-1.3-.89c-4.49-13.22-9-26.44-13.35-39.69-.86-2.6-1.36-5.32-2-7.95.16,16.11.33,32.22.5,48.45H138Z"/><path d="M304.67,103.22h-9.92V43.69c.42,0,.79-.1,1.16-.1,4.08,0,8.16,0,12.24,0,.73,0,1.22.09,1.5.93,5.12,15.27,11.08,30.29,14.36,46.13a3,3,0,0,0,.6,1.36c.62-2.64,1.25-5.28,1.85-7.93,2.49-10.94,6.61-21.37,10.08-32,.81-2.46,1.68-4.89,2.48-7.34.25-.77.57-1.17,1.49-1.16q6.33.07,12.67,0c1,0,1.29.34,1.29,1.33q0,28.67,0,57.34c0,.28,0,.55-.06.94h-10V54.46c-.72,2.87-1.39,6.29-2.45,9.59-3,9.29-6.08,18.54-9.16,27.79-1.15,3.45-2.42,6.86-3.54,10.31a1.39,1.39,0,0,1-1.63,1.15c-2.25,0-4.51,0-6.76,0a1.18,1.18,0,0,1-1.36-.91c-4.39-13.1-8.85-26.18-13.18-39.31-1-3-1.54-6.07-2.15-8.54C304.35,70.35,304.51,86.71,304.67,103.22Z"/><path d="M124.23,124.68c-1.55-2.48-3-4.67-4.34-6.94-8.38-14.22-16.65-28.52-25.15-42.68-3-5-3.67-10.17-2.94-15.82,2.47-19,4.79-38.08,7.18-57.12,0-.22.11-.44.55-.83a17,17,0,0,1,1.64,3.13c1,3.57,2.12,7.15,2.87,10.8q9.84,47.63,19.56,95.29.86,4.21,1.66,8.45A9.12,9.12,0,0,1,124.23,124.68Z"/><path d="M250.12,91.21a17.47,17.47,0,0,1-11.83,12.21,24.14,24.14,0,0,1-14.59.23,20.81,20.81,0,0,1-14.8-18.44c-.58-6.46.37-12.58,4.44-17.8,5.59-7.19,13.18-9.34,21.81-7.48,8.35,1.8,12.94,7.59,14.82,15.62.66,2.82.81,5.75,1.22,8.89H219c.26,6.58,4.27,13.07,12.7,12.38,3.56-.29,6.46-1.62,8.19-4.95a1.32,1.32,0,0,1,1-.63C243.88,91.19,246.9,91.21,250.12,91.21Zm-31-13.31h21.14c.05-6.45-4-11.06-9.78-11.18C223.91,66.59,219.36,71.05,219.15,77.9Z"/><path d="M502.28,84.48H470.12c.17,6.22,4,13,12.48,12.36,3.67-.26,6.68-1.58,8.44-5a1.34,1.34,0,0,1,1-.56c3,0,5.94,0,9.12,0-.2.66-.32,1.2-.52,1.71a16.78,16.78,0,0,1-9.14,9.66,23.66,23.66,0,0,1-18.88.29A18.54,18.54,0,0,1,461.9,92.22c-3.43-8.73-3.09-17.29,2.67-24.93,5.44-7.22,13.14-9.21,21.72-7.35,8.16,1.76,12.76,7.4,14.68,15.25A90.75,90.75,0,0,1,502.28,84.48ZM491.44,78C491,70.36,486.88,66.37,480,66.74c-5.42.28-10,5.56-9.7,11.21Z"/><path d="M365.53,82c0-9.72,4.87-17.71,13-20.94,12.95-5.12,29.66,1.09,30.58,19.7.38,7.64-1.86,14.47-8.12,19.32-6.79,5.25-14.45,5.95-22.29,2.88s-11.71-9.2-13-17.25c-.1-.61-.18-1.23-.22-1.85S365.53,82.58,365.53,82Zm33.35,0a20,20,0,0,0-2.3-9.63,10,10,0,0,0-9.28-5.43c-4.2,0-7.5,1.82-9.33,5.59a20.93,20.93,0,0,0-.2,18.55c1.79,3.91,5.09,5.86,9.42,5.92a10.14,10.14,0,0,0,9.64-5.82A20,20,0,0,0,398.88,81.92Z"/><path d="M414.05,60.46c3.32,0,6.58,0,9.83,0,.35,0,.87.63,1,1.07,3.23,10.55,7,21,9.24,31.79a3,3,0,0,0,.52,1.18c2.18-11.7,6.64-22.69,10.08-34H455c-.14.48-.25.91-.4,1.33Q447.52,81.92,440.42,102c-.34,1-.73,1.35-1.8,1.32-2.92-.08-5.85,0-8.77-.07a1.73,1.73,0,0,1-1.34-.83q-7.22-20.56-14.33-41.16A4.47,4.47,0,0,1,414.05,60.46Z"/><path d="M522.35,103.22H512.3V60.57H522v7.34c3.46-5.9,8.2-9,15.23-7.8v9a35.74,35.74,0,0,0-5.08,0c-6,.87-9.7,5.4-9.77,12-.08,6.8,0,13.6,0,20.4Z"/><path d="M282.36,76.94v8.75H260V76.94Z"/></svg>